<?xml version="1.0" encoding="utf-8"?>
<!-- Generator: Adobe Illustrator 28.0.0, SVG Export Plug-In . SVG Version: 6.00 Build 0)  -->
<svg version="1.1" xmlns="http://www.w3.org/2000/svg" xmlns:xlink="http://www.w3.org/1999/xlink" x="0px" y="0px"
	 viewBox="0 0 400 400" style="enable-background:new 0 0 400 400;" xml:space="preserve">
<style type="text/css">
	.st0{display:none;}
	.st1{display:inline;fill:none;stroke:#6CCCE2;stroke-width:20;stroke-linecap:round;stroke-linejoin:round;stroke-miterlimit:10;}
	.st2{display:inline;fill:none;stroke:#6CCCE2;stroke-width:20;stroke-miterlimit:10;}
	.st3{display:inline;}
	.st4{fill:none;stroke:#6CCCE2;stroke-width:20;stroke-linecap:round;stroke-linejoin:round;stroke-miterlimit:10;}
	.st5{fill:#6CCCE2;}
</style>
<g id="Layer_4" class="st0">
	<path class="st1" d="M166.07,165.97h-17.5c-12.74,0-23.06-10.32-23.06-23.06v-32.94c0-12.74,10.32-23.06,23.06-23.06h17.5
		c12.74,0,23.06,10.32,23.06,23.06v32.94C189.12,155.65,178.8,165.97,166.07,165.97z"/>
	<path class="st1" d="M266.84,301.5h-17.5c-12.74,0-23.06-10.32-23.06-23.06V245.5c0-12.74,10.32-23.06,23.06-23.06h17.5
		c12.74,0,23.06,10.32,23.06,23.06v32.94C289.9,291.18,279.57,301.5,266.84,301.5z"/>
	<polyline class="st1" points="228.84,97.45 258.58,86.91 258.58,165.97 	"/>
	<line class="st1" x1="229.72" y1="167.48" x2="286.44" y2="167.48"/>
	<polyline class="st1" points="127.57,232.98 157.31,222.44 157.31,301.5 	"/>
	<line class="st1" x1="128.45" y1="303.01" x2="185.17" y2="303.01"/>
</g>
<g id="Layer_5" class="st0">
	<path class="st2" d="M307.1,161.13L307.1,161.13c-5.69,0-10.82-3.58-12.62-8.98c-1.41-4.21-3.1-8.28-5.05-12.2
		c-2.57-5.16-1.58-11.38,2.49-15.45v0c6.46-6.46,6.46-16.94,0-23.4l-6.68-6.68c-6.46-6.46-16.94-6.46-23.4,0v0
		c-4.08,4.08-10.29,5.06-15.45,2.49c-3.92-1.95-8-3.64-12.2-5.05c-5.4-1.8-8.98-6.93-8.98-12.62v0c0-9.14-7.41-16.55-16.55-16.55
		h-9.45c-9.14,0-16.55,7.41-16.55,16.55v0c0,5.69-3.58,10.82-8.98,12.62c-4.21,1.41-8.28,3.1-12.2,5.05
		c-5.16,2.57-11.38,1.58-15.45-2.49l0,0c-6.46-6.46-16.94-6.46-23.4,0l-6.68,6.68c-6.46,6.46-6.46,16.94,0,23.4l0,0
		c4.08,4.08,5.06,10.29,2.49,15.45c-1.95,3.92-3.64,8-5.05,12.2c-1.8,5.4-6.93,8.98-12.62,8.98h0c-9.14,0-16.55,7.41-16.55,16.55
		v9.45c0,9.14,7.41,16.55,16.55,16.55h0c5.69,0,10.82,3.58,12.62,8.98c1.41,4.21,3.1,8.28,5.05,12.2
		c2.57,5.16,1.58,11.38-2.49,15.45l0,0c-6.46,6.46-6.46,16.94,0,23.4l6.68,6.68c6.46,6.46,16.94,6.46,23.4,0h0
		c4.08-4.08,10.29-5.06,15.45-2.49c3.92,1.95,8,3.64,12.2,5.05c5.4,1.8,8.98,6.93,8.98,12.62l0,0c0,9.14,7.41,16.55,16.55,16.55
		h9.45c9.14,0,16.55-7.41,16.55-16.55l0,0c0-5.69,3.58-10.82,8.98-12.62c4.21-1.41,8.28-3.1,12.2-5.05
		c5.16-2.57,11.38-1.58,15.45,2.49l0,0c6.46,6.46,16.94,6.46,23.4,0l6.68-6.68c6.46-6.46,6.46-16.94,0-23.4l0,0
		c-4.08-4.08-5.06-10.29-2.49-15.45c1.95-3.92,3.64-8,5.05-12.2c1.8-5.4,6.93-8.98,12.62-8.98l0,0c9.14,0,16.55-7.41,16.55-16.55
		v-9.45C323.64,168.54,316.23,161.13,307.1,161.13z"/>
	<line class="st1" x1="213.55" y1="133.46" x2="195.48" y2="231.34"/>
	<g class="st3">
		<polyline class="st4" points="241.79,159.11 265.08,182.4 241.79,205.69 		"/>
		<polyline class="st4" points="166.06,159.11 142.78,182.4 166.06,205.69 		"/>
	</g>
</g>
<g id="Layer_2" class="st0">
	<path class="st1" d="M279.06,244.58v22.44c0,10.69-8.66,19.35-19.35,19.35H120.94l94.59-94.59L120.94,97.2h138.77
		c10.69,0,19.35,8.66,19.35,19.35v22.44"/>
</g>
<g id="Layer_3">
	<polygon class="st5" points="228.28,278.16 194.77,278.16 194.77,275.9 185.92,278.16 158.07,278.16 158.07,304.89 194.77,304.89 
		231.48,304.89 231.48,275.9 	"/>
	<path class="st4" d="M296.75,269.88H92.79c-13.02,0-23.57-10.55-23.57-23.57V121.4c0-13.02,10.55-23.57,23.57-23.57h203.96
		c13.02,0,23.57,10.55,23.57,23.57v124.9C320.32,259.32,309.77,269.88,296.75,269.88z"/>
	<line class="st4" x1="133.03" y1="309.41" x2="256.51" y2="309.41"/>
	<polyline class="st4" points="114.4,226.58 158.07,178.02 194.77,219.43 256.51,158.07 	"/>
	<polyline class="st4" points="226.58,142.25 273.27,142.25 273.27,188.94 	"/>
</g>
</svg>
