<?xml version="1.0" encoding="utf-8"?>
<!-- Generator: Adobe Illustrator 28.0.0, SVG Export Plug-In . SVG Version: 6.00 Build 0)  -->
<svg version="1.1" id="Layer_1" xmlns="http://www.w3.org/2000/svg" xmlns:xlink="http://www.w3.org/1999/xlink" x="0px" y="0px"
	 viewBox="0 0 400 400" style="enable-background:new 0 0 400 400;" xml:space="preserve">
<style type="text/css">
	.st0{fill:none;stroke:#6CCCE2;stroke-width:20;stroke-linecap:round;stroke-linejoin:round;stroke-miterlimit:10;}
</style>
<g id="Layer_4">
	<path class="st0" d="M166.07,165.97h-17.5c-12.74,0-23.06-10.32-23.06-23.06v-32.94c0-12.74,10.32-23.06,23.06-23.06h17.5
		c12.74,0,23.06,10.32,23.06,23.06v32.94C189.12,155.65,178.8,165.97,166.07,165.97z"/>
	<path class="st0" d="M266.84,301.5h-17.5c-12.74,0-23.06-10.32-23.06-23.06V245.5c0-12.74,10.32-23.06,23.06-23.06h17.5
		c12.74,0,23.06,10.32,23.06,23.06v32.94C289.9,291.18,279.57,301.5,266.84,301.5z"/>
	<polyline class="st0" points="228.84,97.45 258.58,86.91 258.58,165.97 	"/>
	<line class="st0" x1="229.72" y1="167.48" x2="286.44" y2="167.48"/>
	<polyline class="st0" points="127.57,232.98 157.31,222.44 157.31,301.5 	"/>
	<line class="st0" x1="128.45" y1="303.01" x2="185.17" y2="303.01"/>
</g>
</svg>
