<?xml version="1.0" encoding="utf-8"?>
<!-- Generator: Adobe Illustrator 28.0.0, SVG Export Plug-In . SVG Version: 6.00 Build 0)  -->
<svg version="1.1" id="Layer_1" xmlns="http://www.w3.org/2000/svg" xmlns:xlink="http://www.w3.org/1999/xlink" x="0px" y="0px"
	 viewBox="0 0 400 400" style="enable-background:new 0 0 400 400;" xml:space="preserve">
<style type="text/css">
	.st0{fill:none;stroke:#6CCCE2;stroke-width:20;stroke-miterlimit:10;}
	.st1{fill:none;stroke:#6CCCE2;stroke-width:20;stroke-linecap:round;stroke-linejoin:round;stroke-miterlimit:10;}
</style>
<g id="Layer_5">
	<path class="st0" d="M304.32,178.73L304.32,178.73c-5.69,0-10.82-3.58-12.62-8.98c-1.41-4.21-3.1-8.28-5.05-12.2
		c-2.57-5.16-1.58-11.38,2.49-15.45l0,0c6.46-6.46,6.46-16.94,0-23.4l-6.68-6.68c-6.46-6.46-16.94-6.46-23.4,0l0,0
		c-4.08,4.08-10.29,5.06-15.45,2.49c-3.92-1.95-8-3.64-12.2-5.05c-5.4-1.8-8.98-6.93-8.98-12.62l0,0c0-9.14-7.41-16.55-16.55-16.55
		h-9.45c-9.14,0-16.55,7.41-16.55,16.55l0,0c0,5.69-3.58,10.82-8.98,12.62c-4.21,1.41-8.28,3.1-12.2,5.05
		c-5.16,2.57-11.38,1.58-15.45-2.49l0,0c-6.46-6.46-16.94-6.46-23.4,0l-6.68,6.68c-6.46,6.46-6.46,16.94,0,23.4l0,0
		c4.08,4.08,5.06,10.29,2.49,15.45c-1.95,3.92-3.64,8-5.05,12.2c-1.8,5.4-6.93,8.98-12.62,8.98l0,0c-9.14,0-16.55,7.41-16.55,16.55
		v9.45c0,9.14,7.41,16.55,16.55,16.55l0,0c5.69,0,10.82,3.58,12.62,8.98c1.41,4.21,3.1,8.28,5.05,12.2
		c2.57,5.16,1.58,11.38-2.49,15.45l0,0c-6.46,6.46-6.46,16.94,0,23.4l6.68,6.68c6.46,6.46,16.94,6.46,23.4,0l0,0
		c4.08-4.08,10.29-5.06,15.45-2.49c3.92,1.95,8,3.64,12.2,5.05c5.4,1.8,8.98,6.93,8.98,12.62l0,0c0,9.14,7.41,16.55,16.55,16.55
		h9.45c9.14,0,16.55-7.41,16.55-16.55l0,0c0-5.69,3.58-10.82,8.98-12.62c4.21-1.41,8.28-3.1,12.2-5.05
		c5.16-2.57,11.38-1.58,15.45,2.49l0,0c6.46,6.46,16.94,6.46,23.4,0l6.68-6.68c6.46-6.46,6.46-16.94,0-23.4l0,0
		c-4.08-4.08-5.06-10.29-2.49-15.45c1.95-3.92,3.64-8,5.05-12.2c1.8-5.4,6.93-8.98,12.62-8.98l0,0c9.14,0,16.55-7.41,16.55-16.55
		v-9.45C320.86,186.14,313.45,178.73,304.32,178.73z"/>
	<line class="st1" x1="210.77" y1="151.06" x2="192.7" y2="248.94"/>
	<g>
		<polyline class="st1" points="239.01,176.71 262.3,200 239.01,223.29 		"/>
		<polyline class="st1" points="163.28,176.71 140,200 163.28,223.29 		"/>
	</g>
</g>
</svg>
